<?xml version="1.0" standalone="no"?>
<!DOCTYPE svg PUBLIC "-//W3C//DTD SVG 20010904//EN"
 "http://www.w3.org/TR/2001/REC-SVG-20010904/DTD/svg10.dtd">
<svg version="1.0" xmlns="http://www.w3.org/2000/svg"
 width="618.000000pt" height="618.000000pt" viewBox="0 0 618.000000 618.000000"
 preserveAspectRatio="xMidYMid meet">

<g transform="translate(0.000000,618.000000) scale(0.100000,-0.100000)"
fill="#000000" stroke="none">
<path d="M3016 5711 c-21 -23 -23 -43 -12 -128 6 -50 5 -63 -6 -64 -7 0 -286
-1 -621 -2 l-607 -2 0 25 c0 35 -34 86 -72 111 -30 19 -44 20 -178 16 -176 -6
-331 -42 -474 -111 -244 -119 -410 -352 -462 -649 -20 -112 -15 -332 8 -387
18 -42 66 -86 105 -94 l28 -7 0 -178 c0 -99 4 -183 8 -187 4 -4 22 7 40 24
l32 32 2 160 c2 145 4 163 23 190 14 19 28 72 44 162 18 104 32 150 61 208 59
119 117 199 209 290 135 133 262 201 435 234 84 16 128 34 150 60 11 14 37 15
190 9 97 -3 187 -5 201 -5 14 1 100 5 191 8 193 7 187 9 198 -93 6 -59 4 -72
-13 -96 -25 -35 -13 -77 26 -91 56 -20 86 47 42 95 -15 16 -18 78 -8 142 l7
37 223 0 224 0 0 -179 c0 -99 2 -186 5 -194 5 -11 -13 -15 -92 -20 -231 -14
-515 -108 -742 -244 -87 -53 -134 -89 -244 -187 l-78 -69 -77 82 c-77 82 -99
93 -122 66 -21 -25 -3 -62 66 -135 l66 -69 -20 -28 c-11 -15 -30 -37 -42 -48
-39 -35 -164 -206 -223 -305 -127 -214 -207 -492 -207 -722 0 -44 -2 -48 -24
-48 -24 0 -24 2 -28 104 -3 113 -18 146 -64 146 -41 0 -54 -35 -54 -142 l0
-98 -35 0 -35 0 0 123 c0 67 5 139 11 160 20 74 -46 134 -97 86 -24 -22 -24
-25 -24 -196 l0 -173 -42 0 -41 0 7 339 c8 354 6 373 -34 386 -28 9 -88 -30
-96 -61 -4 -14 -1 -145 5 -292 7 -147 13 -291 14 -320 1 -29 -2 -52 -8 -52 -5
0 -20 -3 -32 -6 -22 -6 -23 -4 -23 75 0 92 -17 121 -69 121 -45 0 -53 -19 -49
-115 l3 -87 -25 5 c-14 2 -46 10 -72 18 -43 12 -49 11 -68 -6 -30 -27 -27 -78
6 -104 31 -25 43 -25 112 -7 l52 13 -5 -61 c-8 -75 15 -129 56 -134 43 -5 63
29 67 114 l4 74 30 0 c25 0 29 -3 23 -17 -4 -10 -9 -173 -12 -363 -3 -240 -8
-349 -16 -359 -8 -10 -13 -90 -15 -251 l-3 -238 -34 -6 c-42 -8 -102 -73 -109
-118 -30 -194 4 -473 78 -632 134 -291 352 -455 677 -512 105 -18 259 -15 299
6 42 21 99 82 111 117 l11 33 187 0 c178 0 190 -1 216 -22 25 -20 28 -20 37
-4 12 21 55 38 78 31 11 -4 20 -20 24 -45 6 -36 9 -40 35 -40 23 0 34 8 50 35
16 28 27 35 51 35 35 0 34 6 19 -129 -10 -89 -10 -103 5 -126 21 -32 65 -34
92 -4 17 19 19 35 16 140 l-2 119 40 0 40 0 0 -76 c0 -41 5 -84 11 -95 14 -27
55 -42 80 -29 17 9 19 22 19 105 l0 95 34 0 34 0 4 -89 c3 -97 20 -131 63
-131 38 0 49 26 53 126 l4 94 30 0 30 0 -3 -157 c-3 -167 3 -196 42 -208 14
-5 30 0 48 13 l26 19 0 161 c0 88 3 163 7 167 4 4 21 4 38 0 29 -6 30 -9 24
-41 -8 -43 2 -99 22 -119 9 -8 29 -15 45 -15 40 0 53 35 45 118 l-7 62 36 0
35 0 -1 -80 c-2 -91 13 -120 61 -120 44 0 55 23 54 117 l0 83 38 0 38 0 0
-124 c0 -118 1 -126 22 -140 30 -22 51 -20 74 5 17 19 19 35 16 140 l-3 119
33 0 c27 0 36 -6 48 -33 8 -17 23 -34 33 -35 22 -4 56 24 68 56 8 21 13 23 56
16 27 -4 53 -6 58 -4 6 1 96 4 200 7 l191 4 12 -36 c17 -45 56 -91 96 -112 47
-25 183 -19 351 15 208 43 317 93 436 201 144 130 256 360 279 572 13 127 13
318 -1 360 -15 44 -55 86 -96 101 l-33 12 0 241 c0 133 -3 244 -6 248 -3 3
-20 -1 -37 -8 -22 -9 -34 -22 -38 -42 -11 -46 -10 -375 1 -412 8 -30 6 -35
-21 -58 -40 -34 -45 -45 -63 -149 -48 -281 -206 -526 -433 -671 -68 -43 -178
-87 -273 -109 -79 -17 -138 -43 -158 -67 -10 -11 -21 -13 -50 -6 -20 5 -96 9
-169 9 -115 0 -133 2 -142 17 -8 14 -11 15 -11 3 -1 -10 -4 -9 -10 5 -7 17 -9
17 -9 3 -1 -24 -32 -38 -82 -38 l-42 0 7 41 c10 61 -12 89 -67 89 -24 0 -48
-5 -55 -12 -7 -7 -12 -37 -12 -68 l0 -56 -36 0 -36 0 6 61 c16 170 18 285 6
300 -15 18 -81 20 -98 3 -8 -8 -12 -64 -12 -185 l0 -173 -41 0 -40 0 7 103 c8
124 0 147 -50 147 -51 0 -57 -16 -59 -142 l-2 -113 -35 0 -35 0 4 132 c4 149
-1 163 -55 163 -52 0 -59 -23 -56 -173 l3 -128 -38 3 -38 3 -3 266 -3 266 108
12 c274 30 559 134 793 288 106 70 222 159 229 176 2 5 40 -30 85 -77 87 -92
113 -104 136 -61 16 30 5 50 -85 141 l-63 65 69 80 c258 300 400 632 416 970
6 126 8 139 25 139 16 0 18 -10 18 -104 0 -148 18 -188 75 -166 36 14 45 47
45 166 l0 104 31 0 30 0 -6 -112 c-14 -239 -12 -285 12 -309 31 -31 70 -19 89
27 8 20 12 45 9 56 -4 11 -4 91 0 179 l8 159 39 0 40 0 -4 -338 c-2 -280 -1
-343 11 -366 16 -30 56 -44 80 -29 38 24 40 46 29 391 -5 184 -8 335 -6 337 1
1 18 6 36 10 l32 7 0 -96 c0 -87 2 -96 22 -110 29 -20 52 -20 72 0 12 12 16
37 16 105 l0 89 34 0 c19 0 38 -4 41 -10 11 -17 80 -12 98 8 55 60 -34 161
-97 111 -13 -10 -36 -19 -51 -19 l-27 0 7 94 c7 93 7 95 -18 120 -32 31 -58
33 -83 5 -15 -17 -20 -40 -22 -116 l-4 -94 -31 3 c-29 3 -32 6 -31 38 17 635
17 625 0 658 -13 25 -23 32 -46 32 -17 0 -39 -9 -50 -20 -20 -20 -20 -28 -14
-365 l7 -345 -46 0 -47 0 0 185 0 185 -25 16 c-20 13 -31 15 -50 6 -32 -15
-44 -62 -34 -137 4 -33 8 -103 8 -156 1 -92 0 -97 -21 -103 -13 -3 -26 -6 -30
-6 -5 0 -8 49 -8 109 0 60 -3 116 -6 125 -4 11 -19 16 -48 16 -57 0 -66 -22
-66 -150 0 -91 -2 -100 -19 -100 -17 0 -20 11 -25 93 -16 226 -64 413 -149
586 -66 133 -118 212 -237 359 l-91 114 35 31 c38 35 116 127 116 139 0 12
-31 38 -47 38 -8 0 -51 -35 -94 -77 l-79 -76 -67 64 c-120 115 -290 229 -439
295 -160 70 -417 132 -564 135 l-70 2 0 198 0 199 224 0 224 0 17 -42 18 -43
18 40 c15 34 24 41 56 47 21 4 184 4 363 1 254 -5 330 -9 347 -20 11 -8 72
-27 133 -44 191 -50 342 -139 471 -278 132 -141 210 -300 244 -496 17 -93 21
-103 56 -137 25 -24 35 -39 28 -44 -20 -12 -2 -280 23 -332 10 -24 23 -63 27
-85 l8 -42 11 28 c8 18 12 99 12 222 l0 194 45 31 c76 52 85 82 85 277 0 191
-18 299 -68 421 -48 117 -91 180 -188 279 -83 85 -99 97 -205 147 -63 30 -145
64 -184 75 -116 36 -289 58 -417 52 -57 -2 -104 -48 -119 -116 -7 -32 -16 -52
-22 -48 -6 3 -280 6 -609 5 l-598 -1 7 90 c5 77 4 92 -12 109 -23 25 -67 26
-89 1z m-6 -940 l0 -149 -87 -4 c-71 -4 -100 -10 -148 -34 -71 -35 -81 -61
-20 -55 22 1 47 7 56 12 9 4 20 4 25 0 5 -5 44 -4 87 1 43 6 80 9 82 7 2 -2 5
-69 6 -149 l3 -144 -44 -4 c-170 -12 -399 -113 -525 -231 l-40 -38 -97 103
c-54 56 -98 106 -98 111 1 4 17 20 38 35 78 57 187 151 190 165 4 17 -16 43
-33 43 -24 0 -137 -84 -190 -142 l-54 -59 -103 106 c-57 59 -103 110 -103 114
0 14 106 99 213 173 103 69 274 158 343 176 32 8 36 7 33 -7 -2 -9 6 -56 19
-105 19 -78 25 -90 45 -91 16 -1 22 4 22 19 0 37 -30 150 -47 175 -14 22 -14
25 1 37 17 12 219 70 271 77 17 2 58 5 93 6 l62 1 0 -149z m388 104 c133 -34
177 -52 164 -68 -16 -20 -62 -164 -62 -194 0 -22 -7 -33 -26 -43 -14 -8 -32
-26 -39 -40 -12 -24 -11 -29 10 -56 28 -34 31 -44 11 -44 -18 0 -36 -52 -36
-104 l1 -41 24 28 c14 15 30 48 36 72 8 31 21 52 45 70 41 31 46 73 13 106
-12 12 -17 24 -12 28 15 9 52 132 55 180 3 41 4 42 31 37 54 -11 148 -54 233
-107 99 -63 309 -229 309 -246 0 -6 -42 -54 -92 -106 l-93 -96 -56 47 c-31 26
-84 71 -117 100 -55 48 -69 56 -89 53 -5 0 -8 4 -8 10 0 12 -61 39 -87 39 -10
0 -24 -9 -31 -21 -17 -26 -4 -44 44 -59 30 -10 38 -9 55 6 20 18 20 18 10 -8
-11 -29 -1 -40 99 -116 89 -67 123 -98 119 -109 -2 -6 -45 -54 -96 -107 l-91
-96 -47 40 c-59 51 -191 129 -276 162 -72 29 -199 58 -254 58 l-35 0 0 148 0
148 65 -4 c62 -4 64 -4 71 22 3 15 3 30 0 34 -4 4 -35 12 -69 17 l-62 10 -3
144 -3 144 93 -6 c51 -3 139 -18 196 -32z m-1409 -599 l103 -104 -40 -36 c-48
-43 -108 -130 -118 -168 -5 -25 -3 -28 18 -28 18 0 47 24 108 91 l83 90 93
-93 c52 -51 94 -96 94 -100 0 -4 -25 -44 -56 -90 -106 -158 -156 -288 -170
-445 l-7 -73 -47 0 c-30 0 -52 6 -60 15 -16 19 -69 19 -94 0 -11 -8 -35 -15
-54 -15 l-34 0 7 170 c7 156 6 173 -10 190 -22 24 -62 26 -94 4 -23 -17 -23
-18 -20 -188 l4 -171 -43 -3 -42 -3 6 109 c6 104 6 110 -15 131 -24 24 -51 22
-84 -7 -16 -14 -18 -30 -15 -118 l3 -103 -29 -5 c-65 -13 -65 -14 -59 72 16
249 75 433 220 680 72 122 216 302 241 302 4 0 54 -47 111 -104z m2300 50
c126 -145 237 -322 292 -463 34 -86 91 -322 101 -415 6 -59 10 -109 7 -111 -2
-2 -21 -7 -41 -10 l-38 -6 0 83 c0 87 -9 109 -47 121 -17 4 -30 -1 -49 -20
-24 -24 -25 -31 -22 -100 l3 -75 -41 0 -41 0 -7 123 c-10 171 -42 231 -97 176
-18 -18 -20 -29 -15 -63 3 -22 9 -85 12 -138 l7 -96 -44 -7 c-24 -3 -89 -5
-144 -3 l-100 3 -12 102 c-8 61 -26 137 -44 188 -31 85 -119 237 -165 286
l-25 26 96 91 c53 51 102 92 110 92 8 0 38 -28 67 -62 29 -34 72 -82 95 -107
40 -44 43 -45 59 -29 17 16 17 19 -2 53 -10 20 -45 69 -78 108 -94 115 -95
103 15 213 51 52 97 93 100 92 3 -2 25 -25 48 -52z m-1033 -324 c129 -35 199
-77 310 -187 150 -148 217 -287 230 -473 15 -205 -57 -394 -214 -562 -180
-195 -441 -271 -697 -205 -80 20 -226 94 -297 150 -104 82 -195 223 -232 360
-36 133 -29 342 16 463 64 174 251 363 424 428 86 32 146 41 280 43 79 1 130
-4 180 -17z m-2124 -872 c-3 -106 -2 -111 22 -135 20 -19 30 -23 48 -16 37 13
48 48 48 154 0 95 0 97 24 97 22 0 23 -3 29 -112 11 -204 53 -377 138 -557 74
-158 199 -342 311 -457 l60 -62 -86 -82 c-91 -87 -110 -121 -83 -147 13 -13
21 -14 45 -4 31 13 110 84 155 139 l27 34 58 -52 c125 -113 403 -273 570 -329
116 -39 256 -71 362 -81 58 -6 114 -13 125 -15 20 -4 21 -10 19 -270 -1 -147
-5 -269 -8 -272 -3 -3 -17 -3 -31 1 l-25 6 0 120 c0 107 -2 122 -20 140 -11
11 -33 20 -49 20 -45 0 -55 -37 -46 -175 l7 -115 -25 0 c-56 0 -57 3 -57 127
0 63 -5 123 -10 134 -14 25 -54 25 -80 -1 -18 -18 -20 -33 -20 -140 l0 -120
-40 0 -40 0 0 179 c0 188 -1 192 -47 203 -32 8 -60 -17 -67 -59 -3 -21 0 -99
7 -173 8 -74 12 -138 11 -141 -2 -3 -16 -4 -33 -1 -27 4 -29 6 -24 38 8 51
-17 84 -65 84 -50 0 -62 -14 -62 -72 l0 -48 -35 0 c-22 0 -37 6 -44 17 -10 19
-62 25 -73 8 -11 -15 -379 -23 -398 -9 -37 28 -102 53 -180 68 -98 20 -215 79
-354 178 -99 70 -189 179 -239 288 -32 71 -72 219 -83 309 -8 65 -16 85 -54
126 -26 28 -28 34 -20 75 12 61 12 417 0 439 -8 16 -6 17 16 13 15 -3 32 2 44
13 19 17 19 33 16 376 l-2 359 38 0 38 0 0 -172 c0 -163 1 -173 22 -195 28
-30 52 -29 77 3 19 24 20 35 14 194 l-6 168 29 5 c16 2 34 5 39 6 6 0 9 -39 7
-109z m563 48 c-3 -35 -7 -113 -9 -175 -5 -101 -4 -113 15 -137 24 -31 58 -33
90 -7 23 18 23 21 20 196 l-2 178 23 -7 c13 -3 80 -6 149 -6 l126 0 6 -67 c15
-152 90 -333 193 -462 l53 -65 -31 -36 c-17 -19 -62 -68 -101 -108 l-70 -73
-69 68 c-93 92 -122 135 -115 171 5 23 0 31 -27 50 -57 39 -86 21 -86 -54 0
-32 -2 -35 -15 -24 -13 11 -19 9 -38 -7 -12 -11 -60 -46 -106 -76 l-85 -56
-30 52 c-92 162 -153 374 -163 575 l-6 122 45 0 46 0 -5 -102 c-5 -101 -5
-104 20 -127 19 -17 32 -22 52 -17 36 9 47 46 43 153 l-3 92 30 4 c17 2 35 5
42 5 9 2 11 -15 8 -60z m2578 46 l37 -7 0 -78 c0 -100 -19 -229 -36 -249 -7
-9 -16 -34 -20 -56 -6 -39 -4 -42 20 -46 29 -6 66 26 66 58 0 11 11 30 24 43
19 18 25 38 35 124 6 56 12 126 13 155 2 45 5 52 23 52 11 0 30 3 43 6 22 6
22 5 22 -93 0 -55 5 -114 11 -131 14 -41 45 -51 73 -23 18 18 21 35 24 109 4
115 7 129 36 136 45 11 53 1 49 -67 -11 -205 -60 -389 -158 -600 l-27 -58 -26
17 c-62 41 -162 91 -162 81 0 -1 38 -30 85 -62 46 -33 84 -63 85 -67 1 -24
-228 -321 -257 -333 -12 -4 -24 1 -36 17 -11 13 -51 59 -90 102 -40 43 -73 82
-75 86 -1 3 27 42 63 85 36 43 74 98 86 122 20 42 20 73 0 73 -5 0 -59 -51
-121 -112 l-111 -113 -22 30 c-12 16 -50 61 -85 100 -91 100 -89 95 -36 157
93 108 184 314 205 461 l12 87 106 0 c58 0 123 -3 144 -6z m-2333 -629 c0 -24
81 -166 117 -206 18 -20 33 -40 33 -45 0 -4 -47 -56 -106 -115 l-105 -107 -70
81 c-72 84 -179 237 -179 256 0 6 4 11 9 11 5 0 31 17 58 37 107 83 243 132
243 88z m1888 -183 l75 -73 -44 -45 c-24 -25 -68 -61 -96 -81 -56 -39 -59 -43
-42 -75 8 -15 17 -18 36 -13 27 6 117 69 170 119 l32 29 43 -49 c23 -27 68
-75 101 -107 33 -31 58 -58 56 -60 -2 -1 -40 -30 -84 -63 -136 -103 -227 -161
-325 -208 -150 -72 -140 -74 -174 39 -20 67 -29 119 -30 174 -1 109 -30 137
-90 90 -36 -28 -35 -70 2 -101 38 -32 37 -30 68 -148 14 -58 29 -111 31 -117
11 -28 -234 -88 -387 -95 l-55 -3 -3 150 -2 151 36 2 c66 5 183 31 228 51 37
16 44 23 39 41 -5 20 -10 21 -62 15 -31 -3 -72 -10 -91 -15 -19 -4 -61 -11
-92 -15 l-58 -6 0 155 0 155 38 6 c104 16 254 60 325 96 86 43 185 107 206
133 13 15 17 13 44 -21 17 -21 64 -71 105 -111z m-1341 98 c97 -85 305 -169
461 -186 l62 -7 0 -158 0 -159 -39 0 c-21 0 -56 6 -78 14 -22 8 -71 17 -109
21 -54 6 -72 13 -86 31 -25 32 -74 41 -99 18 -21 -19 -25 -49 -8 -60 15 -9 6
-65 -34 -197 -37 -127 -20 -124 -195 -41 -124 58 -276 155 -357 228 l-50 45
107 108 108 107 37 -35 c21 -20 58 -50 83 -66 25 -17 54 -40 64 -52 24 -26 52
-27 66 -2 21 40 12 61 -33 80 -44 19 -157 115 -157 133 0 12 191 216 203 217
5 1 29 -17 54 -39z m229 -495 c-7 -19 29 -38 113 -60 48 -12 66 -13 77 -4 8 7
14 7 14 1 0 -5 20 -15 45 -21 l45 -11 0 -150 0 -150 -24 0 c-40 0 -256 39
-339 62 -91 24 -88 7 -34 171 21 66 43 112 65 138 35 41 48 49 38 24z"/>
<path d="M2602 4564 c-40 -28 -25 -94 26 -112 24 -8 29 -18 40 -69 6 -32 19
-68 28 -79 14 -17 15 -13 9 56 -4 41 -6 100 -5 132 1 48 -2 58 -22 72 -28 20
-48 20 -76 0z"/>
<path d="M2505 4503 c-54 -13 -72 -66 -30 -85 49 -22 93 19 74 70 -9 23 -10
23 -44 15z"/>
<path d="M3267 4593 c-4 -3 -7 -19 -7 -34 0 -37 27 -51 88 -47 46 3 47 4 50
39 3 31 -1 37 -20 43 -31 8 -103 8 -111 -1z"/>
<path d="M1862 3908 c-20 -20 -15 -112 7 -132 18 -17 20 -16 45 21 32 47 34
87 4 107 -27 19 -40 20 -56 4z"/>
<path d="M1850 3745 c0 -8 5 -15 10 -15 6 0 10 7 10 15 0 8 -4 15 -10 15 -5 0
-10 -7 -10 -15z"/>
<path d="M4435 4022 c-17 -15 -41 -35 -55 -45 -24 -17 -24 -17 8 0 40 22 101
72 87 72 -5 0 -24 -12 -40 -27z"/>
<path d="M4224 3896 c-44 -19 -49 -49 -14 -86 16 -17 34 -47 41 -68 15 -50 23
-56 48 -40 27 17 26 31 -5 108 -14 35 -26 72 -27 82 -1 21 -3 21 -43 4z"/>
<path d="M2950 3694 c-218 -59 -361 -317 -291 -525 82 -244 364 -358 596 -243
98 49 183 153 211 256 28 105 43 97 -188 100 l-203 3 -5 210 -5 210 -30 2
c-16 1 -55 -5 -85 -13z"/>
<path d="M1426 1800 c-63 -19 -136 -118 -136 -185 0 -40 31 -104 66 -137 101
-94 255 -43 294 99 17 59 1 111 -52 169 -52 57 -106 73 -172 54z"/>
<path d="M1830 2831 c0 -31 36 -85 51 -76 14 9 11 58 -7 83 -22 31 -44 28 -44
-7z"/>
<path d="M4180 2715 c-9 -11 -17 -12 -31 -4 -27 14 -24 -2 10 -48 22 -30 40
-43 72 -51 24 -6 45 -9 47 -7 2 2 6 21 9 43 5 35 2 41 -25 61 -35 25 -65 27
-82 6z"/>
<path d="M3623 2140 c-81 -49 -55 -122 30 -86 42 17 60 46 51 81 -8 31 -36 33
-81 5z"/>
<path d="M2677 2252 c-10 -28 -17 -57 -15 -64 7 -20 39 61 36 90 -3 23 -6 20
-21 -26z"/>
<path d="M2463 2139 c-32 -32 -5 -76 55 -91 36 -10 59 55 29 81 -22 18 -71 24
-84 10z"/>
<path d="M3561 5234 c-35 -45 -20 -94 29 -94 56 0 80 60 40 100 -27 27 -44 25
-69 -6z"/>
<path d="M2093 5103 c4 -34 47 -47 47 -16 0 22 -18 43 -37 43 -9 0 -12 -9 -10
-27z"/>
<path d="M1420 4984 c-77 -33 -120 -96 -120 -175 0 -71 35 -130 93 -158 103
-50 202 -5 251 113 38 90 3 175 -89 217 -48 22 -88 23 -135 3z"/>
<path d="M4565 4986 c-34 -15 -77 -61 -101 -109 -37 -70 11 -181 96 -225 111
-57 240 32 240 165 0 82 -36 136 -112 168 -45 18 -83 19 -123 1z"/>
<path d="M4575 1791 c-112 -51 -159 -196 -91 -285 32 -43 82 -66 143 -66 62 0
110 25 145 75 53 76 50 161 -10 227 -61 68 -115 82 -187 49z"/>
<path d="M2 1235 c0 -11 3 -29 8 -40 11 -25 11 1 0 35 -6 20 -8 21 -8 5z"/>
<path d="M21 1160 c0 -20 58 -169 58 -150 1 12 -17 63 -50 145 -5 12 -8 14 -8
5z"/>
<path d="M110 915 c0 -5 5 -17 10 -25 5 -8 10 -10 10 -5 0 6 -5 17 -10 25 -5
8 -10 11 -10 5z"/>
<path d="M160 810 c6 -11 13 -20 16 -20 2 0 0 9 -6 20 -6 11 -13 20 -16 20 -2
0 0 -9 6 -20z"/>
<path d="M189 763 c5 -10 40 -56 77 -103 156 -197 359 -362 562 -456 115 -54
324 -121 394 -128 52 -5 52 -5 13 5 -159 40 -208 54 -275 81 -129 51 -292 136
-365 190 -91 68 -264 241 -344 346 -63 80 -82 100 -62 65z"/>
<path d="M1288 63 c7 -3 16 -2 19 1 4 3 -2 6 -13 5 -11 0 -14 -3 -6 -6z"/>
<path d="M1338 53 c7 -3 16 -2 19 1 4 3 -2 6 -13 5 -11 0 -14 -3 -6 -6z"/>
</g>
</svg>
